<svg xmlns="http://www.w3.org/2000/svg" viewBox="0 0 661.07 652.8"><defs><style>.cls-1,.cls-2{fill:none;stroke-linecap:round;stroke-linejoin:round;stroke-opacity:0.9;stroke-width:16px;}.cls-1{stroke:#fbb902;}.cls-2{stroke:#1b1b1c;}.cls-3{fill:#1b1b1c;}</style></defs><title>자산 2</title><g id="레이어_2" data-name="레이어 2"><g id="레이어_1-2" data-name="레이어 1"><path class="cls-1" d="M187.5,519.25C272.12,391.39,448.16,273.47,600.67,369c19,11.9,46.28,35,50.92,57.8,24.73,121.71-266.2,277.9-407.31,194.6-10.24-6.06-63-72.65-68.53-71.29-17.61,4.33-69.29,23.86-82.24,36.6-1.23,1.21,52.08-17.34,99.87-17.34"/><path class="cls-2" d="M408.25,380.76c31.94,67.66,26.53,143.75,10.71,213.56"/><path class="cls-2" d="M564.41,467.08c.33,2-1,4-1.49,6"/><path class="cls-1" d="M373,300.35C380.85,243.45,231.41-23.19,162.59,11c-57.94,28.8,110.21,219,131.74,240.45,18.1,18,70.43,71.64,59,48.88-16.79-33.41-90.69-66.66-121.9-80.15C-44.61,100.87-76.06,351.29,200,310.13c42.23-6.3,84.39-16.6,125.83-23.47"/><path class="cls-3" d="M300.77,435.79C318.51,492.29,320.51,554,293.52,608c-4.3,8.61,8.64,16.21,13,7.57,28.79-57.66,27.74-123.3,8.75-183.78-2.88-9.18-17.37-5.26-14.46,4Z"/></g></g></svg>